<svg width="128" height="128" viewBox="0 0 128 128" fill="none" xmlns="http://www.w3.org/2000/svg">
<g clip-path="url(#clip0_411_2)">
<rect width="128" height="128" fill="black"/>
<path fill-rule="evenodd" clip-rule="evenodd" d="M80.4269 29.3662C85.812 27.6184 92.0209 27.6497 97.1025 30.2611C108.827 36.2858 113.9 51.8136 109.181 68.2666C107.063 75.6471 103.34 82.8136 95.4547 90.0471C87.569 97.28 76.6322 101.547 71.558 101.547C69.7403 101.547 68.2666 100.114 68.2666 98.3466C68.2666 96.5794 69.7723 95.1466 71.558 95.1466C77.3544 95.1466 82.5334 91.9927 88.6664 87.3472C93.3598 83.7913 97.0248 79.2433 99.0549 75.2803C102.936 67.7006 103.067 57.0175 96.7961 54.1782C93.7847 57.4681 89.8517 59.3874 85.1392 59.3874C74.8996 59.3874 68.8648 51.1498 69.1243 43.6914C69.3723 36.5631 73.9014 31.484 80.4269 29.3662ZM29.2269 29.3662C34.6124 27.6184 40.8205 27.6497 45.9027 30.2611C57.6273 36.2858 62.7 51.8136 57.9807 68.2666C55.8638 75.6471 52.1403 82.8136 44.2547 90.0471C36.3691 97.28 25.4322 101.547 20.358 101.547C18.5403 101.547 17.0667 100.114 17.0667 98.3466C17.0667 96.5794 18.5723 95.1466 20.358 95.1466C26.1544 95.1466 31.3334 91.9927 37.4663 87.3472C42.1602 83.7913 45.8252 79.2433 47.8547 75.2803C51.736 67.7006 51.8674 57.0175 45.5961 54.1782C42.5845 57.4681 38.6515 59.3874 33.9392 59.3874C23.6996 59.3874 17.6648 51.1498 17.9243 43.6914C18.1723 36.5631 22.7014 31.484 29.2269 29.3662Z" fill="white"/>
</g>
<defs>
<clipPath id="clip0_411_2">
<rect width="128" height="128" fill="white"/>
</clipPath>
</defs>
</svg>
